<svg width="60" height="60" viewBox="0 0 60 60" fill="none" xmlns="http://www.w3.org/2000/svg">
<path d="M8.526 11.595V33.897C8.526 46.038 18.141 55.878 30 55.878C41.859 55.878 51.474 46.038 51.474 33.897V11.607L29.871 4.338L8.526 11.595ZM29.865 0L55.5 8.622V33.897C55.5 48.312 44.082 60 30 60C15.918 60 4.5 48.312 4.5 33.897V8.622L29.865 0ZM43.122 19.455C42.9262 19.2751 42.6961 19.1365 42.4456 19.0475C42.195 18.9584 41.9291 18.9208 41.6637 18.9367C41.3983 18.9527 41.1388 19.0219 40.9007 19.1404C40.6626 19.2588 40.4509 19.424 40.278 19.626L27.33 34.533L18.966 25.278C18.7892 25.0799 18.5743 24.9194 18.3341 24.806C18.094 24.6926 17.8335 24.6287 17.5682 24.6181C17.3028 24.6075 17.0381 24.6503 16.7896 24.7441C16.5412 24.8379 16.3141 24.9807 16.122 25.164C15.73 25.5407 15.4994 26.0548 15.4787 26.5981C15.458 27.1414 15.6488 27.6715 16.011 28.077L25.881 38.997C26.069 39.2083 26.3001 39.377 26.5587 39.4915C26.8173 39.606 27.0975 39.6638 27.3803 39.661C27.6632 39.6581 27.9421 39.5947 28.1984 39.475C28.4546 39.3553 28.6823 39.1821 28.866 38.967L43.287 22.365C43.6415 21.9529 43.8223 21.4194 43.7915 20.8767C43.7608 20.334 43.5208 19.8244 43.122 19.455Z" fill="#2579E1"/>
</svg>
