<svg width="60" height="60" viewBox="0 0 60 60" fill="none" xmlns="http://www.w3.org/2000/svg">
<path d="M20 15V30M37.5 15V30M5 30H54M45 45H52.5C52.5 45 53.75 40.75 54.5 38C54.75 37 55 36 55 35C55 34 54.75 33 54.5 32L51 19.5C50.25 17 47.75 15 45 15H10C8.67392 15 7.40215 15.5268 6.46447 16.4645C5.52678 17.4021 5 18.6739 5 20V45H12.5" stroke="#2579E1" stroke-width="3" stroke-linecap="round" stroke-linejoin="round"/>
<path d="M17.5 50C20.2614 50 22.5 47.7614 22.5 45C22.5 42.2386 20.2614 40 17.5 40C14.7386 40 12.5 42.2386 12.5 45C12.5 47.7614 14.7386 50 17.5 50Z" stroke="#2579E1" stroke-width="3" stroke-linecap="round" stroke-linejoin="round"/>
<path d="M22.5 45H35" stroke="#2579E1" stroke-width="2" stroke-linecap="round" stroke-linejoin="round"/>
<path d="M40 50C42.7614 50 45 47.7614 45 45C45 42.2386 42.7614 40 40 40C37.2386 40 35 42.2386 35 45C35 47.7614 37.2386 50 40 50Z" stroke="#2579E1" stroke-width="3" stroke-linecap="round" stroke-linejoin="round"/>
</svg>
