<svg width="60" height="60" viewBox="0 0 60 60" fill="none" xmlns="http://www.w3.org/2000/svg">
<path d="M16.875 20.625C16.875 17.144 18.2578 13.8057 20.7192 11.3442C23.1806 8.88282 26.519 7.50002 30 7.50002C33.481 7.50002 36.8194 8.88282 39.2808 11.3442C41.7422 13.8057 43.125 17.144 43.125 20.625C43.125 21.1223 43.3225 21.5992 43.6742 21.9508C44.0258 22.3025 44.5027 22.5 45 22.5C45.4973 22.5 45.9742 22.3025 46.3258 21.9508C46.6775 21.5992 46.875 21.1223 46.875 20.625C46.8748 17.7471 46.1385 14.9171 44.7362 12.404C43.334 9.89086 41.3123 7.77811 38.8633 6.26655C36.4144 4.75499 33.6195 3.89485 30.7444 3.7679C27.8694 3.64094 25.0096 4.25138 22.4369 5.5412C19.8643 6.83101 17.6642 8.75735 16.0459 11.1371C14.4276 13.5169 13.4447 16.2709 13.1908 19.1376C12.9369 22.0043 13.4203 24.8882 14.5952 27.5154C15.77 30.1425 17.5972 32.4256 19.9031 34.1475C21.8805 35.6246 24.1577 36.6499 26.5744 37.1513C26.9101 37.9042 27.4846 38.5256 28.2089 38.9193C28.9333 39.3129 29.7672 39.4568 30.5817 39.3288C31.3961 39.2008 32.1456 38.808 32.7143 38.2111C33.283 37.6143 33.6392 36.8466 33.7277 36.027C33.8163 35.2073 33.6322 34.3813 33.204 33.6768C32.7759 32.9723 32.1275 32.4285 31.3592 32.1295C30.5909 31.8306 29.7455 31.7932 28.9537 32.023C28.162 32.2529 27.4681 32.7373 26.9794 33.4013C24.1024 32.7209 21.5393 31.0891 19.7054 28.7703C17.8715 26.4514 16.8742 23.5814 16.875 20.625ZM18.75 20.625C18.7507 18.5554 19.3224 16.526 20.402 14.7603C21.4817 12.9946 23.0275 11.5609 24.8694 10.6171C26.7113 9.67319 28.7778 9.25571 30.8417 9.41055C32.9055 9.56539 34.8866 10.2866 36.5671 11.4947C38.2475 12.7028 39.5621 14.3511 40.3662 16.2581C41.1703 18.1652 41.4327 20.2571 41.1247 22.3037C40.8166 24.3503 39.9499 26.2722 38.62 27.858C37.2901 29.4438 35.5485 30.632 33.5869 31.2919C32.5781 30.4569 31.3096 30 30 30C28.6369 30 27.3881 30.4856 26.4131 31.2919C24.1795 30.5405 22.2383 29.1067 20.8633 27.1928C19.4884 25.2789 18.7492 22.9816 18.75 20.625ZM30 13.125C28.0109 13.125 26.1032 13.9152 24.6967 15.3217C23.2902 16.7282 22.5 18.6359 22.5 20.625C22.5 22.6141 23.2902 24.5218 24.6967 25.9283C26.1032 27.3348 28.0109 28.125 30 28.125C31.9891 28.125 33.8968 27.3348 35.3033 25.9283C36.7098 24.5218 37.5 22.6141 37.5 20.625C37.5 18.6359 36.7098 16.7282 35.3033 15.3217C33.8968 13.9152 31.9891 13.125 30 13.125ZM14.0625 33.75H16.6106C18.1179 35.2899 19.8793 36.5585 21.8175 37.5H14.0625C13.3166 37.5 12.6012 37.7963 12.0738 38.3238C11.5463 38.8512 11.25 39.5666 11.25 40.3125V41.25C11.25 44.0119 13.0125 46.7794 16.4231 48.9488C19.8112 51.105 24.6056 52.5 29.9981 52.5C35.3944 52.5 40.1887 51.105 43.5769 48.9488C46.9894 46.7813 48.75 44.01 48.75 41.25V40.3125C48.75 39.5666 48.4537 38.8512 47.9262 38.3238C47.3988 37.7963 46.6834 37.5 45.9375 37.5H35.3062C35.7352 36.2868 35.7352 34.9632 35.3062 33.75H45.9375C47.678 33.75 49.3472 34.4414 50.5779 35.6721C51.8086 36.9028 52.5 38.572 52.5 40.3125V41.25C52.5 45.7369 49.6444 49.5319 45.5906 52.1119C41.5144 54.7069 35.9963 56.25 30 56.25C24.0037 56.25 18.4875 54.7069 14.4094 52.1119C10.3556 49.5319 7.5 45.7369 7.5 41.25V40.3125C7.5 38.572 8.1914 36.9028 9.42211 35.6721C10.6528 34.4414 12.322 33.75 14.0625 33.75Z" fill="#2579E1"/>
</svg>
